# xmcd
#
# Track frame offsets:
#	150
#	17794
#	43617
#	58152
#	75406
#	92345
#	112607
#	129762
#	147828
#	163451
#	180448
#	197251
#	212201
#	229375
#	244331
#	259985
#	276940
#	292303
#	307547
#
# Disc length: 4351
#
# Revision: 2
# Processed by: cddbd v1.5.1PL0 Copyright (c) Steve Scherf et al.
# Submitted via: audiograbber 1.80
# Normalized: r1:DSWAP,DSETVAR1,TDELIM( - )
#
DISCID=0710fd13
DTITLE=Various Artist - Авто дискотека
DYEAR=1900
DGENRE=
TTITLE0=Заяц поп шоу - Самосвал любви
TTITLE1=Андрюха - Елы палы (remix)
TTITLE2=Discobitch - Rock da Beat
TTITLE3=Карт-бланш - Плюша (remix)
TTITLE4=Key West - Party
TTITLE5=Божья коровка - Музыкальный доктор
TTITLE6=Tony Esposito - Kalamba Deluna (remix)
TTITLE7=Валдай - Чай, кофе, потанцуем
TTITLE8=Sir William - King of The World
TTITLE9=Грыппа-в-ухо - Леля
TTITLE10=Отпетые мошенники - А у реки
TTITLE11=M.С.Sar vs. Dj Dee - Pump Up The Jam
TTITLE12=Подъём! - Я тебя такую
TTITLE13=K-System - Supa Dupa Sound
TTITLE14=Стрелки and МС Пряников - Попса
TTITLE15=Das Saint - Follow Me Baby
TTITLE16=Ахи-вхдохи - Не трогать нас руками
TTITLE17=Macumba - Life Is a Carnaval
TTITLE18=Як-40 - Ты один, ты одна
EXTD=
EXTT0=
EXTT1=
EXTT2=
EXTT3=
EXTT4=
EXTT5=
EXTT6=
EXTT7=
EXTT8=
EXTT9=
EXTT10=
EXTT11=
EXTT12=
EXTT13=
EXTT14=
EXTT15=
EXTT16=
EXTT17=
EXTT18=
PLAYORDER=
